<svg width="136" height="40" viewBox="0 0 136 40" fill="none" xmlns="http://www.w3.org/2000/svg">
<g clip-path="url(#clip0)">
<path d="M61.5595 0H23.5051V39.6744H61.5595V0Z" fill="#FFF200"/>
<path d="M23.5051 0H0V24.5058H23.5051V0Z" fill="#BCBEC0"/>
<path d="M14.5493 24.5058H0V39.6744H14.5493V24.5058Z" fill="#231F20"/>
<path fill-rule="evenodd" clip-rule="evenodd" d="M66.5375 9.51169H66.0533V22.4204H66.5375V14.8809C66.5375 11.7528 68.1576 9.68626 70.5516 9.68626C73.018 9.68626 73.9593 11.4272 73.9593 13.6683V22.4157H74.4435V13.9986C74.4435 11.4036 75.9686 9.68626 78.2901 9.68626C80.6343 9.68626 81.7249 11.2008 81.7249 13.4419V22.4157H82.2318V13.6212C82.2318 10.9743 81.0461 9.18614 78.3127 9.18614C76.1858 9.18614 74.9277 10.4459 74.3213 12.2104C73.8868 10.394 72.6514 9.20973 70.624 9.20973C68.3749 9.20973 67.1168 10.5685 66.5375 12.536V9.51169ZM89.8436 9.18142C86.4585 9.18142 84.2094 11.9038 84.2094 15.9896C84.2094 20.1227 86.3861 22.7978 89.7711 22.7978C93.1788 22.7978 95.3555 20.1746 95.3555 16.0934C95.3601 11.8802 93.1833 9.18142 89.8436 9.18142ZM89.8209 9.66267C92.8665 9.66267 94.8487 12.1821 94.8487 16.0934C94.8487 19.8726 92.8665 22.3213 89.7938 22.3213C86.6984 22.3213 84.6936 19.8254 84.6936 15.9708C84.6936 12.1821 86.7481 9.66267 89.8209 9.66267ZM107.642 4.46805H107.158V13.0644C106.407 10.7431 104.909 9.15783 102.248 9.15783C98.9352 9.15783 96.8082 11.8802 96.8082 16.1642C96.8082 20.2972 98.8628 22.845 102.175 22.845C104.787 22.845 106.624 21.2078 107.158 18.7356V22.4157H107.642V4.46805ZM102.203 9.61077C105.732 9.61077 107.158 12.786 107.158 16.0132C107.158 19.9481 105.221 22.4157 102.175 22.4157C99.1298 22.4157 97.3151 20.0472 97.3151 16.1406C97.3151 12.1302 99.2022 9.61077 102.203 9.61077ZM119.73 9.51169H119.223V16.9002C119.223 19.6226 117.725 22.3685 114.797 22.3685C113.249 22.3685 111.896 21.5853 111.29 20.3539C110.878 19.5235 110.805 18.9432 110.805 17.2777V9.51169H110.299V17.8061C110.299 20.7549 111.869 22.8214 114.77 22.8214C117.114 22.8214 118.471 21.4626 119.241 19.3678V22.4204H119.725V9.51169H119.73ZM122.947 4.46805H122.463V22.4157H122.947V4.46805ZM135.641 17.9288H135.134C134.894 20.2737 133.129 22.3921 130.441 22.3921C126.889 22.3921 125.436 19.2168 125.436 16.0132H135.763V15.5084C135.763 12.4322 134.048 9.23332 130.468 9.23332C127.156 9.23332 124.929 12.0076 124.929 16.117C124.929 20.1746 127.106 22.8497 130.441 22.8497C133.392 22.845 135.256 20.703 135.641 17.9288ZM135.279 15.5367H125.436C125.531 12.5124 127.323 9.71457 130.464 9.71457C133.758 9.70985 135.279 12.6351 135.279 15.5367Z" fill="#231F20"/>
<path fill-rule="evenodd" clip-rule="evenodd" d="M78.2358 24.6426H75.0816V30.2902H69.203V24.6426H66.0488V39.6414H69.203V33.1776H75.0816V39.6461H78.2358V24.6426ZM87.5311 24.284C83.2274 24.284 80.399 27.4027 80.399 32.1632C80.399 36.8625 83.25 40 87.513 40C91.7352 40 94.5862 36.8389 94.5862 32.1632C94.5817 27.4687 91.7352 24.284 87.5311 24.284ZM87.4903 26.9828C89.8933 26.9828 91.3913 28.9408 91.3913 32.1019C91.3913 35.3055 89.916 37.2824 87.5311 37.2824C85.0873 37.2635 83.5894 35.3244 83.5894 32.1019C83.5894 28.9832 85.1054 26.9828 87.4903 26.9828ZM108.991 24.6426H105.836V33.6164C105.836 35.8292 105.33 37.2163 102.909 37.2163C100.442 37.2163 99.8176 35.9094 99.8176 33.6164V24.6426H96.6634V33.6164C96.6634 37.891 98.5822 39.9339 102.868 39.9339C107.072 39.9339 108.991 37.9335 108.991 33.6542V24.6426ZM122.368 29.1106C122.309 25.7608 119.861 24.3265 116.833 24.3265C113.48 24.3265 111.299 26.0958 111.299 28.8134C111.299 31.866 113.543 32.4794 115.887 33.1729C118.856 34.0599 119.829 34.2675 119.829 35.447C119.829 36.6879 118.82 37.4475 117.164 37.4475C115.245 37.4475 113.973 36.6454 113.91 34.6261H110.778C110.819 38.0184 113.122 39.9764 117.023 39.9764C119.951 39.9764 122.943 38.6695 122.943 35.1309C122.943 32.6256 121.304 31.5924 118.739 30.8327C115.869 29.9882 114.335 29.8844 114.335 28.5775C114.335 27.5018 115.204 26.8695 116.657 26.8695C118.336 26.8695 119.263 27.648 119.386 29.1012H122.368V29.1106ZM135.623 24.6426H124.834V39.6414H135.763V36.8813H127.966V33.1965H134.998V30.6063H127.966V27.3414H135.623V24.6426Z" fill="#231F20"/>
</g>
<defs>
<clipPath id="clip0">
<rect width="135.763" height="40" fill="white"/>
</clipPath>
</defs>
</svg>
